<mxfile host="Electron" modified="2023-08-28T19:38:02.559Z" agent="Mozilla/5.0 (Macintosh; Intel Mac OS X 10_15_7) AppleWebKit/537.36 (KHTML, like Gecko) draw.io/21.6.8 Chrome/114.0.5735.289 Electron/25.5.0 Safari/537.36" etag="R_fRGgW0WWt2nflsZqJJ" version="21.6.8" type="device">
  <diagram name="Page-1" id="gzwoUPNR0NjfD48ctlmL">
    <mxGraphModel dx="1363" dy="2063" grid="1" gridSize="10" guides="1" tooltips="1" connect="1" arrows="1" fold="1" page="1" pageScale="1" pageWidth="850" pageHeight="1100" math="0" shadow="0">
      <root>
        <mxCell id="0" />
        <mxCell id="1" parent="0" />
        <mxCell id="6W_euKgBNWlH1W0Wr_-I-1" value="" style="rounded=1;whiteSpace=wrap;html=1;" parent="1" vertex="1">
          <mxGeometry x="94" y="-970" width="270" height="200" as="geometry" />
        </mxCell>
        <mxCell id="6W_euKgBNWlH1W0Wr_-I-2" value="" style="image;sketch=0;aspect=fixed;html=1;points=[];align=center;fontSize=12;image=img/lib/mscae/Docker.svg;" parent="1" vertex="1">
          <mxGeometry x="104" y="-960" width="50" height="41" as="geometry" />
        </mxCell>
        <mxCell id="6W_euKgBNWlH1W0Wr_-I-5" style="edgeStyle=orthogonalEdgeStyle;rounded=0;orthogonalLoop=1;jettySize=auto;html=1;entryX=0.5;entryY=0;entryDx=0;entryDy=0;startArrow=classic;startFill=1;" parent="1" source="6W_euKgBNWlH1W0Wr_-I-6" target="6W_euKgBNWlH1W0Wr_-I-32" edge="1">
          <mxGeometry relative="1" as="geometry">
            <Array as="points">
              <mxPoint x="309.5" y="-825" />
            </Array>
          </mxGeometry>
        </mxCell>
        <mxCell id="6W_euKgBNWlH1W0Wr_-I-44" style="edgeStyle=orthogonalEdgeStyle;rounded=0;orthogonalLoop=1;jettySize=auto;html=1;exitX=0.25;exitY=1;exitDx=0;exitDy=0;entryX=0.75;entryY=0;entryDx=0;entryDy=0;" parent="1" source="6W_euKgBNWlH1W0Wr_-I-6" target="6W_euKgBNWlH1W0Wr_-I-42" edge="1">
          <mxGeometry relative="1" as="geometry" />
        </mxCell>
        <mxCell id="6W_euKgBNWlH1W0Wr_-I-6" value="VPN SERVER" style="rounded=0;whiteSpace=wrap;html=1;" parent="1" vertex="1">
          <mxGeometry x="172.5" y="-840" width="90" height="30" as="geometry" />
        </mxCell>
        <mxCell id="6W_euKgBNWlH1W0Wr_-I-7" style="edgeStyle=orthogonalEdgeStyle;rounded=0;orthogonalLoop=1;jettySize=auto;html=1;entryX=0;entryY=0.5;entryDx=0;entryDy=0;entryPerimeter=0;startArrow=classic;startFill=1;" parent="1" source="6W_euKgBNWlH1W0Wr_-I-8" target="6W_euKgBNWlH1W0Wr_-I-35" edge="1">
          <mxGeometry relative="1" as="geometry">
            <Array as="points">
              <mxPoint x="309" y="-660" />
            </Array>
          </mxGeometry>
        </mxCell>
        <mxCell id="6W_euKgBNWlH1W0Wr_-I-8" value="192.168.1.1" style="text;html=1;strokeColor=none;fillColor=none;align=center;verticalAlign=middle;whiteSpace=wrap;rounded=0;" parent="1" vertex="1">
          <mxGeometry x="274" y="-760" width="70" height="30" as="geometry" />
        </mxCell>
        <mxCell id="6W_euKgBNWlH1W0Wr_-I-9" value="&lt;span style=&quot;font-size: 14px;&quot;&gt;&lt;b&gt;VPN Server&lt;/b&gt;&lt;/span&gt;" style="text;html=1;strokeColor=none;fillColor=none;align=center;verticalAlign=middle;whiteSpace=wrap;rounded=0;" parent="1" vertex="1">
          <mxGeometry x="154" y="-960" width="80" height="30" as="geometry" />
        </mxCell>
        <mxCell id="6W_euKgBNWlH1W0Wr_-I-10" value="" style="rounded=1;whiteSpace=wrap;html=1;" parent="1" vertex="1">
          <mxGeometry x="477" y="-970" width="270" height="200" as="geometry" />
        </mxCell>
        <mxCell id="6W_euKgBNWlH1W0Wr_-I-11" value="" style="image;sketch=0;aspect=fixed;html=1;points=[];align=center;fontSize=12;image=img/lib/mscae/Docker.svg;" parent="1" vertex="1">
          <mxGeometry x="487" y="-960" width="50" height="41" as="geometry" />
        </mxCell>
        <mxCell id="6W_euKgBNWlH1W0Wr_-I-12" value="eth0" style="rounded=0;whiteSpace=wrap;html=1;" parent="1" vertex="1">
          <mxGeometry x="515" y="-780" width="50" height="20" as="geometry" />
        </mxCell>
        <mxCell id="6W_euKgBNWlH1W0Wr_-I-13" style="edgeStyle=orthogonalEdgeStyle;rounded=0;orthogonalLoop=1;jettySize=auto;html=1;exitX=0.25;exitY=0;exitDx=0;exitDy=0;entryX=0.75;entryY=1;entryDx=0;entryDy=0;startArrow=classic;startFill=1;" parent="1" source="6W_euKgBNWlH1W0Wr_-I-14" target="6W_euKgBNWlH1W0Wr_-I-37" edge="1">
          <mxGeometry relative="1" as="geometry" />
        </mxCell>
        <mxCell id="6W_euKgBNWlH1W0Wr_-I-14" value="tun0" style="rounded=0;whiteSpace=wrap;html=1;" parent="1" vertex="1">
          <mxGeometry x="661" y="-780" width="50" height="20" as="geometry" />
        </mxCell>
        <mxCell id="6W_euKgBNWlH1W0Wr_-I-15" style="edgeStyle=orthogonalEdgeStyle;rounded=0;orthogonalLoop=1;jettySize=auto;html=1;entryX=1;entryY=0.5;entryDx=0;entryDy=0;entryPerimeter=0;startArrow=classic;startFill=1;" parent="1" source="6W_euKgBNWlH1W0Wr_-I-16" target="6W_euKgBNWlH1W0Wr_-I-35" edge="1">
          <mxGeometry relative="1" as="geometry">
            <Array as="points">
              <mxPoint x="540" y="-660" />
            </Array>
          </mxGeometry>
        </mxCell>
        <mxCell id="6W_euKgBNWlH1W0Wr_-I-16" value="192.168.1.2" style="text;html=1;strokeColor=none;fillColor=none;align=center;verticalAlign=middle;whiteSpace=wrap;rounded=0;" parent="1" vertex="1">
          <mxGeometry x="505" y="-760" width="70" height="30" as="geometry" />
        </mxCell>
        <mxCell id="6W_euKgBNWlH1W0Wr_-I-17" value="10.0.1.2" style="text;html=1;strokeColor=none;fillColor=none;align=center;verticalAlign=middle;whiteSpace=wrap;rounded=0;" parent="1" vertex="1">
          <mxGeometry x="651" y="-760" width="70" height="30" as="geometry" />
        </mxCell>
        <mxCell id="6W_euKgBNWlH1W0Wr_-I-18" value="&lt;b&gt;&lt;font style=&quot;font-size: 14px;&quot;&gt;VPN Client&amp;nbsp;&lt;br&gt;&lt;/font&gt;&lt;/b&gt;" style="text;html=1;strokeColor=none;fillColor=none;align=center;verticalAlign=middle;whiteSpace=wrap;rounded=0;" parent="1" vertex="1">
          <mxGeometry x="537" y="-960" width="100" height="30" as="geometry" />
        </mxCell>
        <mxCell id="6W_euKgBNWlH1W0Wr_-I-32" value="eth0" style="rounded=0;whiteSpace=wrap;html=1;" parent="1" vertex="1">
          <mxGeometry x="284" y="-780" width="50" height="20" as="geometry" />
        </mxCell>
        <mxCell id="6W_euKgBNWlH1W0Wr_-I-35" value="" style="sketch=0;points=[[0.015,0.015,0],[0.985,0.015,0],[0.985,0.985,0],[0.015,0.985,0],[0.25,0,0],[0.5,0,0],[0.75,0,0],[1,0.25,0],[1,0.5,0],[1,0.75,0],[0.75,1,0],[0.5,1,0],[0.25,1,0],[0,0.75,0],[0,0.5,0],[0,0.25,0]];verticalLabelPosition=bottom;html=1;verticalAlign=top;aspect=fixed;align=center;pointerEvents=1;shape=mxgraph.cisco19.rect;prIcon=l2_switch;fillColor=#FAFAFA;strokeColor=#005073;" parent="1" vertex="1">
          <mxGeometry x="394" y="-685" width="50" height="50" as="geometry" />
        </mxCell>
        <mxCell id="6W_euKgBNWlH1W0Wr_-I-36" style="edgeStyle=orthogonalEdgeStyle;rounded=0;orthogonalLoop=1;jettySize=auto;html=1;exitX=0.25;exitY=1;exitDx=0;exitDy=0;entryX=0.5;entryY=0;entryDx=0;entryDy=0;startArrow=classic;startFill=1;" parent="1" source="6W_euKgBNWlH1W0Wr_-I-37" target="6W_euKgBNWlH1W0Wr_-I-12" edge="1">
          <mxGeometry relative="1" as="geometry" />
        </mxCell>
        <mxCell id="6W_euKgBNWlH1W0Wr_-I-37" value="VPN CLIENT" style="rounded=0;whiteSpace=wrap;html=1;" parent="1" vertex="1">
          <mxGeometry x="517" y="-860" width="90" height="30" as="geometry" />
        </mxCell>
        <mxCell id="6W_euKgBNWlH1W0Wr_-I-38" style="edgeStyle=orthogonalEdgeStyle;rounded=0;orthogonalLoop=1;jettySize=auto;html=1;entryX=0.75;entryY=0;entryDx=0;entryDy=0;startArrow=classic;startFill=1;" parent="1" source="6W_euKgBNWlH1W0Wr_-I-39" target="6W_euKgBNWlH1W0Wr_-I-14" edge="1">
          <mxGeometry relative="1" as="geometry" />
        </mxCell>
        <mxCell id="6W_euKgBNWlH1W0Wr_-I-39" value="nc 10.0.1.3 3000" style="rounded=0;whiteSpace=wrap;html=1;" parent="1" vertex="1">
          <mxGeometry x="584.5" y="-910" width="127" height="30" as="geometry" />
        </mxCell>
        <mxCell id="6W_euKgBNWlH1W0Wr_-I-42" value="tun0" style="rounded=0;whiteSpace=wrap;html=1;" parent="1" vertex="1">
          <mxGeometry x="146.5" y="-780" width="50" height="20" as="geometry" />
        </mxCell>
        <mxCell id="6W_euKgBNWlH1W0Wr_-I-43" value="10.0.1.3" style="text;html=1;strokeColor=none;fillColor=none;align=center;verticalAlign=middle;whiteSpace=wrap;rounded=0;" parent="1" vertex="1">
          <mxGeometry x="136.5" y="-760" width="70" height="30" as="geometry" />
        </mxCell>
        <mxCell id="6W_euKgBNWlH1W0Wr_-I-46" style="edgeStyle=orthogonalEdgeStyle;rounded=0;orthogonalLoop=1;jettySize=auto;html=1;exitX=0.25;exitY=1;exitDx=0;exitDy=0;entryX=0.25;entryY=0;entryDx=0;entryDy=0;" parent="1" source="6W_euKgBNWlH1W0Wr_-I-45" target="6W_euKgBNWlH1W0Wr_-I-42" edge="1">
          <mxGeometry relative="1" as="geometry" />
        </mxCell>
        <mxCell id="6W_euKgBNWlH1W0Wr_-I-45" value="nc -l -s 10.0.1.3 -p 3000" style="rounded=0;whiteSpace=wrap;html=1;" parent="1" vertex="1">
          <mxGeometry x="104" y="-900" width="136.25" height="30" as="geometry" />
        </mxCell>
        <mxCell id="6W_euKgBNWlH1W0Wr_-I-47" value="&lt;font style=&quot;font-size: 30px;&quot;&gt;&lt;b&gt;SCENARIO&lt;/b&gt;&lt;/font&gt;" style="text;html=1;strokeColor=none;fillColor=none;align=center;verticalAlign=middle;whiteSpace=wrap;rounded=0;" parent="1" vertex="1">
          <mxGeometry x="80" y="-1040" width="194" height="30" as="geometry" />
        </mxCell>
      </root>
    </mxGraphModel>
  </diagram>
</mxfile>
